STARTFONT 2.1
FONT -FontForge-Mando AF-Regular-R-Normal--82-790-75-75-M-420-ISO10646-1
SIZE 79 75 75
FONTBOUNDINGBOX 41 89 0 -2
COMMENT "Generated by fontforge, http://fontforge.sourceforge.net"
COMMENT "CC0 - public domain"
STARTPROPERTIES 40
FOUNDRY "FontForge"
FAMILY_NAME "Mando AF"
WEIGHT_NAME "Regular"
SLANT "R"
SETWIDTH_NAME "Normal"
ADD_STYLE_NAME ""
PIXEL_SIZE 82
POINT_SIZE 790
RESOLUTION_X 75
RESOLUTION_Y 75
SPACING "M"
AVERAGE_WIDTH 420
CHARSET_REGISTRY "ISO10646"
CHARSET_ENCODING "1"
FONTNAME_REGISTRY ""
CHARSET_COLLECTIONS "ISO10646-1"
FONT_NAME "MandoAF-Regular"
FACE_NAME "Mando AF Regular"
COPYRIGHT "CC0 - public domain"
FONT_VERSION "002"
FONT_ASCENT 66
FONT_DESCENT 16
UNDERLINE_POSITION -8
UNDERLINE_THICKNESS 5
X_HEIGHT 81
CAP_HEIGHT 81
RAW_ASCENT 800
RAW_DESCENT 200
NORM_SPACE 42
RELATIVE_WEIGHT 40
RELATIVE_SETWIDTH 50
SUPERSCRIPT_X 0
SUPERSCRIPT_Y 39
SUPERSCRIPT_SIZE 57
SUBSCRIPT_X 0
SUBSCRIPT_Y 11
SUBSCRIPT_SIZE 57
FIGURE_WIDTH 42
AVG_LOWERCASE_WIDTH 420
AVG_UPPERCASE_WIDTH 420
ENDPROPERTIES
CHARS 77
STARTCHAR space
ENCODING 32
SWIDTH 510 0
DWIDTH 42 0
BBX 1 1 0 0
BITMAP
00
ENDCHAR
STARTCHAR exclam
ENCODING 33
SWIDTH 510 0
DWIDTH 42 0
BBX 11 59 15 11
BITMAP
F000
F000
F000
F000
F000
F000
F000
F000
F000
F000
F000
F000
F800
F800
F820
F8E0
FBE0
FFE0
FFC0
FFC0
FFC0
FFC0
FFC0
FFC0
FF80
FF80
FF80
FF80
FF80
FF00
FF00
FF00
FF00
FF00
FE00
FE00
FE00
FE00
FE00
FC00
FC00
FC00
FC00
FC00
F800
F800
F800
F800
F800
F800
F000
F000
F000
F000
E000
E000
C000
C000
8000
ENDCHAR
STARTCHAR quotedbl
ENCODING 34
SWIDTH 510 0
DWIDTH 42 0
BBX 23 23 11 64
BITMAP
008002
018004
03801C
07803C
0F007C
1F00F8
3F01F8
7F03F8
FE07F0
FE07F0
FE07F0
7E03F0
7C03E0
7C03E0
7C03E0
7803E0
7801C0
3801C0
3801C0
3001C0
300180
300180
100080
ENDCHAR
STARTCHAR numbersign
ENCODING 35
SWIDTH 510 0
DWIDTH 42 0
BBX 40 80 1 1
BITMAP
0000C00000
0003C00000
0007C00C00
001FC01C00
003FC07C00
007FC0FC00
007FC1FC00
007FC7FC00
007FCFFC00
007FDFFC00
007FFFFC00
007FFFFC00
007FFFFC00
007FFF7C00
007FFE7C00
007FFC7C00
007FF87C00
00FFF87C00
03FFF07C00
1FFFE07C00
FFFFC0FC00
FFFF80FC00
7FFF80FC00
1FFF80FC00
03FF80FC00
007F80FC00
007F80FC00
007F80FC00
007F80FC00
007F80FC00
007F80FC00
007F80FC00
007F00FC00
007F00FC00
007F00FC00
007F00FC00
007F00FC00
007F00FC00
007F00FC00
007F00FC00
007F00FC00
007F00FC00
007F00FC00
007F01FC00
007F01FE00
007F01FE00
007F01FE00
007F01FE00
007F01FE00
007F01FE00
003F01FE00
003F01FE00
003F01FE00
003F01FE00
003E01FE00
003E01FFC0
003E01FFF8
003E01FFFE
003E03FFFF
003E03FFFF
003E07FFF8
003E0FFFC0
003E1FFF00
003E3FFE00
003E3FFE00
003E7FFE00
003EFFFE00
003FFFFE00
003FFFFE00
003FFFFE00
003FFBFE00
003FF3FE00
003FE3FE00
003F83FE00
003F03FE00
003C03FC00
003803F800
002003E000
000003C000
0000030000
ENDCHAR
STARTCHAR dollar
ENCODING 36
SWIDTH 510 0
DWIDTH 42 0
BBX 35 82 3 0
BITMAP
0000400000
0020600000
0020700000
0060780000
00607C0000
00E07C0000
00E07C0000
01E07C0000
01E07C0000
01E0FC0000
01E0FC0000
03E0FC0000
03E0FC0000
03E0FC0000
03E0FC0000
03E0FC0000
07E0FC0000
07E0FC0000
07E0FC0000
07E0FC0000
07E0FC0000
07E0FC0000
0FE0FC0000
0FE0FC0000
0FE0FC0000
0FE0FC0000
0FE0FE0000
1FE0FE0000
1FE0FE0000
1FE0FE0000
1FE0FE0000
1FE0FE0000
3FE0FE0000
3FE0FE0000
3FE07F0000
3FE07F0000
3FE03F8000
7FE03F8000
7FE03F8000
7FE01FC000
7FE01FC000
7FE00FE000
7FE00FE000
FBE00FE000
E3E007F000
81E007F000
01E003F800
01E003F800
01E001FC00
01E001FC00
01E001FC00
01E000FE00
01E000FE00
01E0007F00
01E0007F00
01E0003F00
01E0003F80
01E0003F80
01E0001FC0
01E0001FC0
0000001FC0
0000001FC0
0000001FC0
0000001FC0
0000001FE0
0000001FE0
0000001FE0
0000003FE0
0000003FE0
0000003FE0
0600003FE0
0780003FE0
0780003FE0
0780003FE0
07C001FFE0
07C0FFFFC0
07FFFFFF00
07FFFFFE00
0FFFFFFC00
0FFFFFF000
007FFFE000
00003FC000
ENDCHAR
STARTCHAR ampersand
ENCODING 38
SWIDTH 510 0
DWIDTH 42 0
BBX 40 82 1 -1
BITMAP
0000800000
0001F00000
0007FC0000
001FFF8000
003FFF8000
00FFFF0000
00FFF80000
00FF000000
00FF000000
00FF000380
00FF000FF0
00FF001FFC
00FF007FFF
00FF00FFFE
00FF03FFFC
00FF03FF80
00FF03FE00
00FF03FE00
00FF03FE00
00FF03FE00
00FF03FE00
00FF03FE00
00FF03FE00
00FF03FE00
00FF03FE00
00FF03FE00
00FF03FE00
00FF03FE00
00FE03FE00
00FE03FC00
00FE03FC00
00FE03FC00
00FE03FC00
00FE03FC00
00FE03FC00
00FE03FC00
00FE03FC00
00FE03FC00
00FE03FC00
00FE03FC00
00FE03FC00
00FE03FC00
00FE03FC00
00FE03FC00
00FE03FC00
00FE01FC00
00FE01FC00
80FE01FC00
C0FE01FC00
F0FE01FC00
78FC01FC00
7CFC01FC00
7FFC01FC00
7FFC01FC00
3FFC01FC00
3FFC01F800
3FFC01F800
3FFC01F800
1FFC01F800
1FFC01F800
1FFC01F800
1FFC01F800
0FFC01F800
0FFC01F800
0FFC01F800
0FFC01F800
07FC01F800
07FC01F800
07FC01F800
07FC01F800
03FC01F800
03FC01F800
03FC01F800
03FC01F000
01F801F000
01F801F000
01F801F000
01F801F000
00F801F000
00F801E000
00E001C000
00C0010000
ENDCHAR
STARTCHAR quotesingle
ENCODING 39
SWIDTH 510 0
DWIDTH 42 0
BBX 10 23 16 64
BITMAP
0040
0180
0380
0780
0F80
1F00
3F00
7F00
FE00
FE00
FE00
7E00
7C00
7C00
7C00
7C00
3800
3800
3800
3000
3000
3000
1000
ENDCHAR
STARTCHAR comma
ENCODING 44
SWIDTH 510 0
DWIDTH 42 0
BBX 13 21 14 0
BITMAP
0008
0018
0018
0038
0078
0078
00F8
00F8
01F8
03F8
03F8
07F8
07F8
0FE0
0FC0
1F00
3E00
3C00
7000
6000
8000
ENDCHAR
STARTCHAR hyphen
ENCODING 45
SWIDTH 510 0
DWIDTH 42 0
BBX 33 16 5 36
BITMAP
000001E000
00000FF800
00007FFE00
0003FFFF00
000FFFFF00
003FFFFF80
00FFFFFE00
03FFFFE000
07FFFF0000
1FFFF00000
1FFF800000
3FFC000000
7FE0000000
7F00000000
F800000000
C000000000
ENDCHAR
STARTCHAR period
ENCODING 46
SWIDTH 510 0
DWIDTH 42 0
BBX 13 21 14 0
BITMAP
4000
4000
6000
7000
7000
7800
F800
FC00
FC00
FE00
FF00
FF00
7F80
3F80
0FC0
07E0
03E0
00F0
0070
0018
0008
ENDCHAR
STARTCHAR zero
ENCODING 48
SWIDTH 510 0
DWIDTH 42 0
BBX 32 81 6 0
BITMAP
00000380
01000FF0
07003FFC
0F007FFF
1F01FFFE
1F03FFFC
1F03FE00
1F03FE00
1F03FE00
1F03FE00
1F03FE00
1F03FC00
1F03FC00
1F03FC00
1F03FC00
1F03FC00
3F03FC00
3F03FC00
3F03FC00
3F03FC00
3F03FC00
3F03FC00
3F03FC00
3F03FC00
3F03FC00
3F03FC00
3F03FC00
3F03FC00
3F03F800
3F83F800
3F83F800
7F83F800
7F83F800
7F83F800
7F83F800
7F83F800
7F83F800
7F83F800
7F83F800
7F83F800
7F83F800
7F83F800
7F83F800
7F83F800
7F83F800
7F83F000
FF83F000
FF83F000
FF83F000
FF83F000
FF83F000
FF83F000
FF03F000
FE03F000
F803F000
E003F000
C003F000
0003F000
0003F000
0003F000
0003F000
0003E000
0003E000
0003E000
0003E000
0003E000
0003E000
0003E000
0003E000
0003E000
0003E000
0003E000
0003E000
0003E000
0003E000
0003E000
0003E000
0003C000
0003C000
00038000
00030000
ENDCHAR
STARTCHAR one
ENCODING 49
SWIDTH 510 0
DWIDTH 42 0
BBX 40 81 1 0
BITMAP
0000810000
000381C000
000781E000
000781E000
000781E000
000781E000
000781E000
000781F000
000F81F000
000F81F000
000F81F000
000F81F000
000F81F000
000F81F000
000F81F000
000F81F000
000F81F000
000F81F000
000F81F000
000F81F000
000F81F000
000F81F000
000F81F000
000F81F800
001F81F800
001F81F800
001F81F800
001F81F800
001F81F800
001F81F800
001F81F800
001F81F800
001F81F800
001F81F800
001F81F800
001F81F800
001F81F800
001F81F800
001F81F800
001F81F800
001F81FC00
003F81FC00
003F81FC00
003F81FC00
003F81FC00
003F81FC00
003F81FC00
003F81FC00
003F81FC00
003F81FC00
003F81FC00
003F81FC00
003F81FC00
003F81FC00
003F81FC00
003F81FC00
003F81FC00
003F81FE00
007F81FE00
007F81FE00
007F81FE00
007F81FE00
007F81FE00
007F81FE00
007F81FE00
007F81FE00
007F81FE00
007F81FE00
007F81FE00
007F81FE00
007F81FE00
007F81FE00
007F81FE00
007F81FF00
01FF81FF00
3FFF81FFFE
FFFF00FFFF
FFFE007FFF
7FF8001FFE
0FE00007F8
03C00003C0
ENDCHAR
STARTCHAR two
ENCODING 50
SWIDTH 510 0
DWIDTH 42 0
BBX 22 82 10 0
BITMAP
400000
600000
780004
7C001C
7C003C
7C00FC
7C03FC
7C07FC
7C07FC
7C07FC
7C07FC
7C07FC
7C07FC
7C07F8
7C07F8
7C07F8
7C07F8
7C07F8
7C07F8
7E07F8
7E07F8
7E07F8
7E07F8
7E07F8
7E07F8
7E07F8
7E07F8
7E07F8
7E07F8
7E07F8
7E07F8
7E07F8
7E07F8
7E07F8
7E07F0
FE07F0
FE07F0
FE07F0
FE07F0
FE07F0
FE07F0
FE07F0
FE07F0
FE07F0
FE07F0
FE07F0
FE03F0
FF03F0
FF03F0
FF03F0
FF03F0
FF03E0
FF03E0
FF03E0
FF03E0
FF03E0
FF03E0
FF03E0
FF03E0
FF03E0
FF03E0
FF03E0
FF03E0
FF03E0
FF03E0
FF03E0
FF03C0
FF0380
FF0200
FF0000
FF0000
FF0000
FF0000
FF0000
FF0000
FFC000
FFFE00
7FFF80
1FFF80
0FFF00
03F800
00C000
ENDCHAR
STARTCHAR three
ENCODING 51
SWIDTH 510 0
DWIDTH 42 0
BBX 40 82 1 0
BITMAP
0000000100
07C00003C0
1FE0000FF8
FFF8003FFE
FFFE007FFF
FFFF81FFFE
3FFF83FFF8
00FF83FF00
00FF83FE00
00FF83FE00
00FF83FE00
007F83FE00
007F83FE00
007F83FE00
007F83FE00
007F83FE00
007F83FE00
007F83FE00
007F83FE00
007F83FE00
007F83FE00
007F83FC00
007F83FC00
007F83FC00
007F83FC00
007F83FC00
007F83FC00
003F83FC00
003F83FC00
003F83FC00
003F83FC00
003F83FC00
003F83FC00
003F83FC00
003F83FC00
003F83FC00
003F83FC00
003F83FC00
003F83F800
003F83F800
003F83F800
003F83F800
003F83F800
003F83F800
001F83F800
001F83F800
001F83F800
001F83F800
001F83F800
001F83F800
001F83F800
001F83F800
001F83F800
001F83F800
001F83F800
001F83F000
001F83F000
001F83F000
001F83F000
001F83F000
000F83F000
000F83F000
000F83F000
000F83F000
000F83F000
000F83F000
000F83F000
000F83F000
000F83F000
000F83F000
000F83F000
000F83E000
000F83E000
000F83E000
000F83E000
000F83E000
000F83E000
000783E000
000783E000
000783E000
0003838000
0000830000
ENDCHAR
STARTCHAR four
ENCODING 52
SWIDTH 510 0
DWIDTH 42 0
BBX 22 81 10 0
BITMAP
01E000
07FC00
0FFF80
3FFF80
7FFF00
FFF800
FF8000
FF0000
FF0000
FF0000
FF0000
FF0000
FF0000
FF0300
FF0380
FF03E0
FF03E0
FF03E0
FF03E0
FF03E0
FF03E0
FF03E0
FF03E0
FF03E0
FF03E0
FF03E0
FF03E0
FF03E0
FF03E0
FF03E0
FF03E0
FF03F0
FF03F0
FF03F0
FE03F0
FE03F0
FE07F0
FE07F0
FE07F0
FE07F0
FE07F0
FE07F0
FE07F0
FE07F0
FE07F0
FE07F0
FE07F0
7E07F8
7E07F8
7E07F8
7E07F8
7E07F8
7E07F8
7E07F8
7E07F8
7E07F8
7E07F8
7E07F8
7E07F8
7E07F8
7E07F8
7E07F8
7E07F8
7C07F8
7C07F8
7C07F8
7C07F8
7C07F8
7C07FC
7C07FC
7C07FC
7C07FC
7C07FC
7C07FC
7C03FC
7C01FC
7C007C
7C003C
78000C
700000
600000
ENDCHAR
STARTCHAR five
ENCODING 53
SWIDTH 510 0
DWIDTH 42 0
BBX 39 82 1 0
BITMAP
0080000200
07E0000F80
1FF0003FF0
FFFC007FFE
7FFF01FFFE
7FFF83FFFC
07FFC7FFC0
007FC7FC00
007FC7FC00
007FC7FC00
007FC7FC00
007FC7FC00
007FC7FC00
007FC7FC00
007FC7FC00
007FC7FC00
007FC7FC00
007FC7FC00
007FC7F800
007FC7F800
003FC7F800
003FC7F800
003FC7F800
003FC7F800
003FC7F800
003FC7F800
003FC7F800
003FC7F800
003FC7F800
003FC7F800
003FC7F800
003FC7F800
003FC7F800
003F87F800
003F87F800
003F87F800
003F83F800
003F83F800
003F83F800
003F83F800
003F83F000
001F83F000
001F83F000
001F83F000
001F83F000
001F83F000
001F83F000
001F83F000
001F83F000
001F83F000
001F83F000
001F83F000
001F83F000
001F83F000
001F83F000
001F83F000
001F83F000
001F83F000
001F83F000
001F83F000
001F83F000
001F83F000
001F83F000
001F83F000
001F83E000
000F83E000
000F83E000
000F83E000
000F83E000
000F83E000
000F83E000
000F83E000
000F83E000
000F83E000
000F83E000
003F83FE00
3FFF83FFF0
7FFE00FFFC
FFFC007FFE
3FF8003FF8
0FE0000FC0
01C0000700
ENDCHAR
STARTCHAR six
ENCODING 54
SWIDTH 510 0
DWIDTH 42 0
BBX 18 82 12 0
BITMAP
008000
01F000
07FE00
0FFF80
3FFF80
FFFF00
FFF800
FF8000
FF8000
FF8000
FF8000
FF8000
FF8000
FF8000
FF0000
FF0000
FF0000
FF0000
FF0000
FF0000
FF0000
FF0000
FF0000
FF0000
FF0000
FF0000
FF0000
FF0000
FF0000
FF0000
FF0000
FF0000
FF0000
FF0000
FF0000
FF0000
FE0000
FE0000
FE0000
FE0000
FE0000
FE0000
FE0000
FE0000
FE0000
FE0000
FE0000
FE0000
7E0000
7E0000
7E0000
7E0000
7E0000
7E0000
7E0000
7E0000
7E0000
7E0000
7E0000
7C0000
7C0000
7C0000
7C0000
7C0000
7C0000
7C0000
7C0000
7C0000
7C0000
7C0000
7C0000
7C0000
7C0000
7C0000
7C0000
7F8000
7FFE00
3FFF80
0FFFC0
07FF00
01F800
00E000
ENDCHAR
STARTCHAR seven
ENCODING 55
SWIDTH 510 0
DWIDTH 42 0
BBX 41 82 0 0
BITMAP
000000008000
00000001F000
00000007FC00
0000001FFF80
0000003FFF80
000040FFFF00
0000C1FFFC00
0001C1FF8000
0003C1FF0000
0003C1FF0000
0003C1FF0000
0007C1FF0000
0007C1FF0000
0007C1FF0000
0007C1FF0000
0007C1FF0000
0007C1FF0000
0007C1FF0000
0007C1FF0000
0007C1FF0000
0007C1FF0000
0007C1FE0000
0007C1FE0000
0007C1FE0000
0007C1FE0000
0007C1FE0000
000FC1FE0000
000FC1FE0000
000FC1FE0000
000FC1FE0000
000FC1FE0000
000FC1FE0000
000FC1FE0000
000FC1FE0000
000FC1FE0000
000FC1FE0000
000FC1FE0000
000FC1FC0000
000FC1FC0000
000FC1FC0000
000FC1FC0000
000FC1FC0000
001FC1FC0000
001FC1FC0000
001FC1FC0000
001FC1FC0000
001FC1FC0000
001FC1FC0000
001FC1FC0000
001FC1FC0000
001FC1FC0000
001FC1FC0000
001FC1F80000
001FC1F80000
001FC1F80000
001FC1F80000
001FC1F80000
003FC1F80000
003FC1F80000
003FC1F80000
003FC1F80000
003FC1F80000
003FC1F80000
003FC1F80000
003FC1F80000
003FC1F80000
003FC1F80000
003FC1F00000
003FC1F00000
003FC1F00000
003FC1F00000
003FC1F00000
003FC1F00000
007FC1F00000
007FC1F00000
007FC1F00000
3FFFC1E00000
7FFF81800000
FFFE01000000
3FFC00000000
0FF000000000
01C000000000
ENDCHAR
STARTCHAR eight
ENCODING 56
SWIDTH 510 0
DWIDTH 42 0
BBX 18 82 12 -2
BITMAP
200000
300000
3C0000
7C0000
7C0000
7C0000
7C0000
7C0000
7C0000
7C0000
7C0000
7C0000
7C0000
7C0000
7E0000
7E0000
7E0000
7E0000
7E0000
7E0000
7E0000
7E0000
7E0000
7E0000
7E0000
7E0000
7E0000
7E0000
7E0000
7E0000
7E0000
7E0000
7E0000
7E0000
7E0000
7E0000
7E0000
7E0000
7E0000
7F0000
7F0000
7F0000
7F0000
7F0000
7F0000
7F0000
FF0000
FF0000
FF0000
FF0000
FF0000
FF0000
FF0000
FF0000
FF0000
FF0000
FF0000
FF0000
FF0000
FF0000
FF0000
FF0000
FF0000
FF0000
FF0000
FF0000
FF0000
FF8000
FF8000
FF8000
FF8000
FF8000
FF8000
FF8000
FF8000
FFF800
7FFF00
3FFF80
0FFFC0
07FE00
01F000
004000
ENDCHAR
STARTCHAR nine
ENCODING 57
SWIDTH 510 0
DWIDTH 42 0
BBX 31 82 5 0
BITMAP
20000380
30000FE0
3C001FFC
3C007FFE
3C01FFFE
3E03FFF8
3E03FF00
3E03FE00
3E03FE00
3E03FE00
3E03FE00
3E03FE00
3E03FC00
3E03FC00
3E03FC00
3E03FC00
3E03FC00
3E03FC00
3E03FC00
7E03FC00
7E03FC00
7E03FC00
7E03FC00
7E03FC00
7E03FC00
7E03FC00
7E03FC00
7E03FC00
7E03FC00
7F03FC00
7F03FC00
7F03FC00
7F03FC00
7F03FC00
7F03FC00
7F03FC00
7F03FC00
7F03FC00
7F03FC00
7F03FC00
7F03FC00
7F03F800
7F01F800
7F01F800
7F01F800
7F01F800
7F01F800
7F01F800
7F01F800
7F01F800
7F01F800
7F01F800
7F01F800
7F01F800
7F01F800
7F01F800
7F81F800
7F81F800
7F81F800
7F81F800
7F81F000
7F81F000
7F81F000
7F81F000
7F81F000
7F81F000
7F81F000
FF81E000
FF818000
FF810000
FF800000
FF800000
FF800000
FF800000
FF800000
FFE00000
FFFF0000
3FFF8000
0FFFC000
07FF0000
01FC0000
00600000
ENDCHAR
STARTCHAR colon
ENCODING 58
SWIDTH 510 0
DWIDTH 42 0
BBX 14 42 14 23
BITMAP
0008
0008
0018
0038
003C
007C
007C
00FC
01FC
01FC
03FC
03FC
07F8
07F0
0FC0
1F80
1E00
3C00
3000
6000
0000
0010
0010
0038
0038
0078
0078
00F8
01F8
01F8
03F8
03F8
07F8
07F8
0FE0
1FC0
1F00
3E00
3800
7000
6000
8000
ENDCHAR
STARTCHAR semicolon
ENCODING 59
SWIDTH 510 0
DWIDTH 42 0
BBX 14 63 14 2
BITMAP
0004
000C
001C
001C
003C
003C
007C
00FC
00FC
01FC
01FC
03FC
03F8
07F0
0FE0
0F80
1F00
1C00
3800
2000
4000
0008
0018
0018
0038
0038
0078
00F8
00F8
01F8
01FC
03FC
03FC
07F8
0FF0
0FC0
1F80
1E00
3C00
3000
6000
8000
0010
0010
0030
0030
0070
00F0
00F0
01F0
01F8
03F8
07F8
07F8
0FF0
0FE0
1FC0
1F00
3E00
7C00
7000
E000
8000
ENDCHAR
STARTCHAR question
ENCODING 63
SWIDTH 510 0
DWIDTH 42 0
BBX 30 82 6 0
BITMAP
0001F800
07FFFC00
FFFFFE00
FFFFFF80
FFFFFFC0
FFFFFFE0
F83FFFF0
F8007FFC
F80007FC
F00007FC
F00007FC
C00007FC
000007FC
000007FC
000003FC
000003FC
000003FC
000003FC
000003FC
000003F8
000003F8
000003F8
000003F8
000003F8
000003F0
000007F0
000007F0
00000FE0
00000FE0
00001FC0
00001FC0
00001FC0
00003F80
00003F80
00007F00
00007F00
00007E00
0000FE00
0000FE00
0001FC00
0001FC00
0003F800
0003F800
0003F800
0007F000
0007F000
000FE000
000FE000
000FE000
001FC000
001FC000
001FC000
001FC000
001FC000
001FC000
001FC000
001FC000
001FC000
001F8000
001F8000
001F8000
001F8000
001F8000
001F8000
001F8000
001F8000
001F8000
001F8000
001F8000
001F8000
000F8000
000F8000
000F8000
000F8000
000F8000
000F8000
000F8000
000F8000
000F8000
000F0000
000C0000
00080000
ENDCHAR
STARTCHAR at
ENCODING 64
SWIDTH 510 0
DWIDTH 42 0
BBX 32 81 5 1
BITMAP
00001000
00203000
00607000
0060F000
00E1F000
00E1F000
01E1F000
01E1F000
01E1F000
01E1F000
03E1F000
03E1F000
03E1F000
03E1F000
03E1F000
07E1F000
07E1F000
07E1F000
07E1F000
07E1F000
0FE1F000
0FE1F000
0FE1F000
0FE1F000
0FE1F000
1FE1F000
1FE1F000
1FE1F000
1FE3F000
1FE3F000
1FE3F000
3FE3F000
3FE3F000
3FE3F000
3FE3F000
3FE3F000
7FE3F000
7FE3F000
7FE3F000
7FE3F000
7FE3F000
FFE7F000
FFE7F000
FBE7F000
E3EFE000
83EFE000
03EFE000
03FFC000
03FFC000
01FFC000
01FFC000
01FF8000
01FF8000
01FF8000
01FF0000
01FF0000
01FF0000
01FE0000
01FE0000
01FE0000
01FE0000
01FC0000
03FC0000
03FC0000
03F80000
07F80000
07F80000
07F00000
0FF00000
0FF00002
0FF00006
1FE0000E
1FE0001F
0FF8001F
07FFE01F
03FFFFFF
01FFFFFF
00FFFFFF
007FFFFF
003FFFFC
001FF800
ENDCHAR
STARTCHAR A
ENCODING 65
SWIDTH 510 0
DWIDTH 42 0
BBX 25 81 8 0
BITMAP
00200000
00200000
00603000
00603800
00E03C00
00E03C00
00E03C00
01E03C00
01E03E00
01E03E00
01E03E00
01E03E00
03E03E00
03E03E00
03E03E00
03E03E00
03E07E00
03E07E00
07E07E00
07E07E00
07E07E00
07E07E00
07E07E00
0FE07E00
0FE07E00
0FE07E00
0FE07E00
0FE07E00
1FE07E00
1FE07E00
1FE07E00
1FE07F00
1FE07F00
3FE07F00
3FE07F00
3FE07F00
3FE07F00
3FE07F00
3FE07F00
7FE07F00
7FE07F00
7FE07F00
79E07F00
61E07F00
C1E07F00
01E07F00
01E07F00
01E07F00
01E07F00
01E07F00
01E07F00
01E07F00
00E07F00
00E07F00
00E07F00
00E07F80
00E07F80
00E07F80
00E07F80
00007F80
00007F80
00007F80
00007F80
00007F80
00007F80
00007F80
00007F80
00007F80
00007F80
00007F80
00007F80
00007F80
00007F80
00007F80
00007F80
00007F80
00007F80
00001F80
00000780
00000380
00000080
ENDCHAR
STARTCHAR B
ENCODING 66
SWIDTH 510 0
DWIDTH 42 0
BBX 26 82 8 0
BITMAP
0000C000
0003F000
0007FE00
001FFF80
007FFF80
00FFFF00
00FFF000
00FF8000
00FF0000
00FF0000
00FF0000
00FF0000
00FF0000
00FF0000
00FF0000
00FF0000
00FF0000
00FF0000
00FF0000
00FF0000
00FF0000
00FF0000
00FF0000
00FF0000
00FF0000
00FFE000
00FFFC00
00FFFF00
00FFFFC0
00FFFF80
00FFFF80
00FFC000
00FE0000
00FE0000
00FE0000
00FE0000
00FE0000
00FE0000
00FE0000
00FE0000
00FE0000
00FE0000
00FE0000
00FE0000
00FE0000
00FE0000
00FE0000
C0FE0000
E0FE0000
70FE0000
78FE0000
7EFE0000
7FFE0000
3FFC0000
3FFC0000
3FFC0000
3FFC0000
1FFC0000
1FFC0000
1FFC0000
1FFC0000
0FFC0000
0FFC0000
0FFC0000
0FFC0000
07FC0000
07FC0000
07FC0000
07FC0000
03FC0000
03FC0000
03FC0000
03FC0000
01FC0000
01FC0000
01FC0000
01FC0000
00F80000
00F80000
00F80000
00E00000
00400000
ENDCHAR
STARTCHAR C
ENCODING 67
SWIDTH 510 0
DWIDTH 42 0
BBX 26 82 8 0
BITMAP
00400000
01F80000
07FE0000
0FFFC000
3FFF8000
FFFF0000
FFF80000
FF800000
FF800000
FF800000
FF800000
FF800000
FF800000
FF800000
FF800000
FF800000
FF800000
FF800000
FF800000
FF000000
FF000000
FF000000
FF000000
FF000000
FF000000
FF000000
FF000000
FF000000
FF000000
FF000000
FF000000
7F000000
7F000000
7F000000
7F000000
7F000000
7F000000
7F000000
7F000000
7F000000
7F000000
7F000000
7F000000
7E000000
7E000000
7E000000
7E000000
7E000000
7E000000
7E000000
7E000000
7E000000
7E000000
7E000000
7E000000
7E000000
7E000000
7E000000
7E000000
7E000000
7E000000
7E000000
7E000000
7E000000
7E000000
7E000000
7E000000
7E000000
7E000000
7E000000
7C000180
7C000380
7C000780
7C000780
7F800780
7FFF0FC0
3FFFFFC0
3FFFFFC0
1FFFFFC0
0FFFFFC0
07FFE000
07C00000
ENDCHAR
STARTCHAR D
ENCODING 68
SWIDTH 510 0
DWIDTH 42 0
BBX 30 82 6 -1
BITMAP
00000400
00001F80
20003FF0
3000FFFC
3803FFF8
3C07FFF0
3E07FF00
3E07F800
3E07F800
3E07F800
3E07F800
3E07F800
3E07F800
3E07F800
3E07F800
3E07F800
3E07F800
3E07F800
3E07F800
3E07F800
3E07F800
3E07F800
7E07F800
7E07F800
7E07F000
7E07F000
7E07F000
7E07F000
7E07F000
7E07F000
7E07F000
7E07F000
7E07F000
7E07F000
7E07F000
7E07F000
7E07F000
7E07F000
7E07F000
7F07F000
7F07F000
7F07F000
7F07F000
7F07F000
7F07F000
7F07F000
7F07F000
7F07E000
7F07E000
FF07E000
FF07E000
FF07E000
FF07E000
FF07E000
FF07E000
FF07E000
FF07E000
FF07E000
FF07E000
FF07E000
FF07E000
FF07E000
FF07E000
FF07E000
FF07E000
FF07E000
FF07E000
FF07E000
FF07E000
FF07E030
FF07E0F0
FF07E1F0
FF07C1F0
FFE7C1F0
FFFFE1F0
FFFFFFF0
FFFFFFF0
7FFFFFF0
3FFFFFF0
1FFFFE00
0FFF0000
07C00000
ENDCHAR
STARTCHAR E
ENCODING 69
SWIDTH 510 0
DWIDTH 42 0
BBX 28 82 7 0
BITMAP
00003000
00007E00
0001FF80
0007FFF0
000FFFE0
001FFFC0
007FFC00
01FFE000
07FFE000
3FFFE000
FFFFE000
FFFFE000
7FFFE000
0FFFE000
003FE000
003FC000
003FC000
003FC000
003FC000
003FC000
003FC000
003FC000
003FC000
003FC000
003FC000
003FC000
003FC000
003FC000
003FC000
003FC000
003FC000
003FC000
003FC000
003FC000
003FC000
003FC000
003FC000
003FC000
003F8000
003F8000
003F8000
003F8000
003F8000
003F8000
003F8000
003F8000
001F8000
001F8000
001F8000
001F8000
001F8000
001F8000
001F8000
001F8000
001F8000
001F8000
001F8000
001F8000
001F8000
001F8000
001F8000
001F8000
001F0000
001F0000
001F0000
001F0000
001F0000
001F0000
001F0000
001F0000
001F0000
001F0000
001F0000
001F0000
001F0000
001F0000
001F0000
001F0000
001F0000
001E0000
001C0000
00180000
ENDCHAR
STARTCHAR F
ENCODING 70
SWIDTH 510 0
DWIDTH 42 0
BBX 36 81 3 1
BITMAP
000FE00000
001FFF8000
003FFFFE00
007FFFFFF0
00FFFFFFF0
01FFFFFFF0
01FFFFFFF0
01FFFFC3F0
01FFF001F0
01FF0001F0
01FF0001F0
01FF0001F0
01FF000070
01FF000010
01FE000000
01FE000000
01FE000000
01FE000000
01FE000000
81FE000000
E1FE000000
F1FE000000
F9FE000000
7DFE000000
7FFE000000
7FFE000000
7FFE000000
3FFE000000
3FFE000000
3FFE000000
3FFE000000
1FFE000000
1FFE000000
1FFE000000
1FFE000000
0FFE000000
0FFE000000
0FFE000000
0FFE000000
07FE000000
07FE000000
07FE000000
07FE000000
03FE000000
03FE000000
03FE000000
03FE000000
01FC000000
01FC000000
01FC000000
01FC000000
00FC000000
00FC000000
00FC000000
00FC000000
00FC000000
00FC000000
00FC000000
00FC000000
00FC000000
00FC000000
00FC000000
00FC000000
00FC000000
00FC000000
00FC000000
00FC000000
00FC000000
00FC000000
00FC000000
00FC000000
007C000000
007C000000
007C000000
007C000000
007C000000
007C000000
007C000000
0078000000
0070000000
0060000000
ENDCHAR
STARTCHAR G
ENCODING 71
SWIDTH 510 0
DWIDTH 42 0
BBX 31 81 5 0
BITMAP
00010000
0001C000
0001C000
0001E000
0001E000
0001E000
0001E000
0001F000
0001F000
0001F000
0001F000
0001F000
0001F000
0001F000
0001F000
0001F000
0001F000
0001F000
0001F000
0001F000
0001F000
0001F000
0001F000
0001F000
0001F000
0001F000
0001F000
0001F000
0001F000
0001F000
0001F000
0001F000
0001F000
0001F000
0001F000
0001F000
0001F000
0001F000
0001F000
0001F800
0001F800
8001F800
6001FC00
7001FC00
7801FC00
3E00FE00
3F00FE00
3F80FE00
1FC07F00
1FC07F00
1FC07F00
1FC07F80
0FC03F80
0FC03F80
0FC03FC0
07801FC0
07801FC0
07801FE0
03800FE0
03800FE0
03800FF0
01800FF0
010007F0
010007F8
000007F8
000003F8
000003FC
000003FC
000003FC
180001FE
1C0001FE
1E0001FE
1E0001FE
1F001FFC
1F07FFF8
1FFFFFF0
1FFFFFE0
3FFFFFC0
3FFFFF80
00FFFF00
00003E00
ENDCHAR
STARTCHAR H
ENCODING 72
SWIDTH 510 0
DWIDTH 42 0
BBX 30 82 6 0
BITMAP
00400000
01F80000
07FF0000
0FFFC000
3FFFC000
7FFF8000
FFF80000
FF800000
FF800000
FF800000
FF800000
FF800000
FF800000
FF800000
FF800000
FF800000
FF800000
FF800000
FF800000
FF800000
FF800000
FF000000
FF000000
FF000000
FF180080
FF1C00C0
FF0E00E0
7F0F80E0
7F0FC0F0
7F0FE0F0
7F07F0F0
7F07F8F0
7F07F0F0
7F03F0F0
7F03F0F0
7F03F0F0
7F01F0F0
7F01F0F0
7F01F0F0
7F00F1F0
7F00E1F0
7F00E1F0
7F0061F0
7F0061F0
7F0061F0
7E0021F0
7E0001F0
7E0001F0
7E0001F0
7E0001F0
7E0001F0
7E0001F0
7E0001F8
7E0001F8
7E0001F8
7E0001F8
7E0001F8
7E0001F8
7E0001F8
7E0001F8
7E0001F8
7E0001F8
7E0001F8
7E0001F8
7E0001F8
7E0001F8
7E0001F8
7E0001F8
7E0001F8
7C0001F8
7C0001F8
7C0001F8
7C0001F8
7C0001F8
7C0001F8
7C0001F8
7C0000F8
7C00007C
7C00003C
7800001C
70000004
60000000
ENDCHAR
STARTCHAR I
ENCODING 73
SWIDTH 510 0
DWIDTH 42 0
BBX 29 81 6 0
BITMAP
00000E00
00001E00
00007C00
0000FC00
0003FC00
0003FC00
0003FC00
0003FC00
0003FC00
0003FC00
0003FC00
0003FC00
0003FC00
0003FC00
0003FC00
0003FC00
0003FC00
0003FC00
0003FC00
0003FC00
0003FC00
0003FC00
0003FC00
0003FC00
0003FC00
0003FC00
0003F800
0003F800
0003F800
0003F800
0003F800
0003F800
0003F800
0003F800
0003F800
0003F800
0003F800
0003F800
0003F800
0003F800
0003F800
0003F800
0003F800
0003F800
0003F800
0003F800
0003F800
0003F800
0003F800
0003F000
0003F000
0003F000
0003F000
0003F000
0003F000
0003F000
0003F800
0003FF00
0003FFE0
0007FFF8
000FFFF8
001FFFF8
001FFFC0
003FFF00
007FF800
00FFF000
01FFF000
03FFF000
07FFF000
07FFF000
0FFBF000
1FF3F000
3FE3E000
3F83E000
7F03E000
7E03E000
7803E000
7003E000
C003E000
80018000
00010000
ENDCHAR
STARTCHAR J
ENCODING 74
SWIDTH 510 0
DWIDTH 42 0
BBX 18 82 16 0
BITMAP
00E000
03FC00
07FF00
1FFFC0
3FFF80
FFFF00
FFE000
FF8000
FF8000
FF8000
FF8000
FF8000
FF8000
FF8000
FF8000
FF8000
FF0000
FF0000
FF0000
FF0000
FF0000
FF0000
FF0000
FF0000
FF0000
FF0000
FF0000
FF0000
FF0000
FF0000
FF0000
FF0000
FF0000
FF0000
FF0000
FF0000
FF0000
FF0000
FF0000
FE0000
FE0000
FE0000
FE0000
7E0000
7E0000
7E0000
7E0000
7E0000
7E0000
7E0000
7E0000
7E0000
7E0000
7E0000
7E0000
7E0000
7E0000
7E0000
7E0000
7E0000
7E0000
7E0000
7C0000
7C0000
7C0000
7C0000
7C0000
7C0000
7C0000
7C0000
7C0000
7C0000
7C0000
7C0000
7C0000
7C0000
7C0000
7C0000
7C0000
780000
700000
400000
ENDCHAR
STARTCHAR K
ENCODING 75
SWIDTH 510 0
DWIDTH 42 0
BBX 29 82 6 0
BITMAP
00000C00
00003F80
0000FFF0
0001FFF8
0007FFF8
001FFFE0
001FFC00
000FF000
000FF000
000FF000
000FF000
000FF000
000FF000
000FF000
000FF000
000FF000
000FF000
800FF000
600FF000
700FF000
7C0FF000
3E0FF000
3F0FF000
3FCFF000
1FEFF000
1FFFF000
0FFFF000
07FFF000
03FFF000
01FFF000
00FFF000
00FFE000
007FE000
003FE000
001FE000
000FE000
000FE000
000FE000
000FE000
000FE000
000FE000
000FE000
000FE000
000FE000
001FE000
00FFE000
07FFE060
3FFFE0E0
7FFFE1E0
7FFFE3C0
3FFFE7C0
0FFFFFC0
000FFF80
000FFF80
000FFF80
000FFF00
000FFF00
000FFF00
007FFF00
01FFFE00
0FFFFE00
7FFFFE00
7FFFFC00
7FFFFC00
1FFFFC00
000FF800
000FF800
000FF800
000FF800
000FF000
000FF000
000FF000
0007E000
0007E000
0007E000
0007C000
0007C000
0007C000
0007C000
00078000
00060000
00040000
ENDCHAR
STARTCHAR L
ENCODING 76
SWIDTH 510 0
DWIDTH 42 0
BBX 33 82 6 0
BITMAP
0000400000
0000C00000
0001C00000
0007C00080
0007C00380
0007C00F00
0007C01F00
0007C07E00
0007C1FE00
0007C3FE00
0007CFFC00
0007FFF800
0007FFF000
0007FFE000
000FFFC000
000FFF8000
001FFF0000
00FFFE0000
07FFFC0000
3FFFF80000
1FFFF00000
1FFFE00000
07FFC00000
00FFC00000
003FC00000
000FC00000
000FC00000
000FC00000
000FC00000
000FC00000
000FC00000
000FC00000
000FC00000
000FC00000
000FC00000
000FC00000
000FC00000
000FC00000
000FC00000
000FC00000
001FC00000
001FC00000
001FC00000
001FC00000
001FC00000
001FC00000
00FFC00000
07FFC00000
3FFFC00000
FFFFC00000
FFFFE00000
7FFFE00000
3FFFE00000
001FE00000
001FE00000
001FE00000
001FE00000
001FE00000
007FE00000
03FFE00000
1FFFE00000
7FFFE00000
FFFFE00000
FFFFE00000
7FFFE00000
01FFE00000
003FE00000
003FE00000
003FE00000
003FE00000
003FE00000
003FE00000
003FE00000
003FE00000
003FE00000
003FE00000
003FE00000
003FC00000
003F000000
003C000000
0038000000
0020000000
ENDCHAR
STARTCHAR M
ENCODING 77
SWIDTH 510 0
DWIDTH 42 0
BBX 31 82 3 0
BITMAP
00000700
00001FE0
00003FF8
0000FFFE
0001FFFC
0007FFF8
0007FE00
0007FC00
0007FC00
0007FC00
0007FC00
0007FC00
0007FC00
0007FC00
0007FC00
0007FC00
0007FC00
0007FC00
0007FC00
0007FC00
0007F800
0007F800
0007F800
8007F800
E007F800
7007F800
7807F800
7C07F800
3F07F800
3F83F800
3FC3F800
3FC3F800
1FC3F800
1FC3F800
1F83F800
0F83F800
0F83F800
0F83F800
0783F800
0783F800
0783F800
0303F800
0303F800
0303F000
0103F000
0103F000
0003F000
0003F000
0003F000
0003F000
0003F000
0003F000
0003F000
0003F000
0003F000
0003F000
0003F000
0003F000
0003F000
0003F000
0003F000
0003F000
0003F000
0003F000
0003F000
0003F000
0003F000
0003E000
0003E000
0003E000
0003E000
0003E000
0003E000
0003E000
0003E000
0003EC00
0003FFF8
0001FFFC
00007FFE
00003FFC
00000FE0
00000700
ENDCHAR
STARTCHAR N
ENCODING 78
SWIDTH 510 0
DWIDTH 42 0
BBX 31 82 5 0
BITMAP
00000300
00000FE0
00003FFC
00007FFE
0001FFFE
0007FFF8
0007FF00
0007FC00
0003FC00
0003FC00
0003FC00
0003FC00
0003FC00
0003FC00
0003FC00
0003FC00
0003FC00
0003FC00
0003FC00
0003FC00
0003FC00
0003FC00
0003FC00
8003FC00
6003FC00
7003FC00
7803FC00
3E03FC00
3F03FC00
3F83F800
1FC3F800
1FC3F800
1FC3F800
0FC3F800
0FC3F800
0FC3F800
0FC3F800
0783F800
0783F800
0783F800
0383F800
0383F800
0383F800
0183F800
0103F800
0103F800
0003F800
0003F800
0003F800
0003F800
0003F800
0003F800
0003F000
0003F000
0003F000
0003F000
0003F000
0003F000
0003F000
0003F000
0003F000
0003F000
0003F000
0003F000
0003F000
0003F000
0003F000
0003F000
0003F000
0003F000
0003F000
0001F000
0001F000
0001F000
0001F000
0001F000
0001F000
0001F000
0001E000
0001E000
00018000
00010000
ENDCHAR
STARTCHAR O
ENCODING 79
SWIDTH 510 0
DWIDTH 42 0
BBX 36 81 3 0
BITMAP
0000080000
00700E0000
00F00F0000
00F00F0000
00F01F0000
00F01F0000
00F01F0000
00F01F0000
00F01F0000
01F01F0000
01F01F0000
01F01F0000
01F01F8000
01F01F8000
01F01F8000
81F01F8000
E1F01F8000
79F01F8000
7FF01F8000
7FF01F8000
7FF01F8000
7FF01F8000
3FF01F8000
3FF01F8000
3FF01F8000
3FF01F8000
3FF01F8000
1FF01F8000
1FF01F8000
1FF01F8000
1FF01F8000
1FF01F8000
0FF01F8000
0FF01F8000
0FF01F8000
0FF01F8000
0FF01F8000
07F01F8000
07F01F8000
07F01F8000
07F03F8000
07F03F8000
03F03FC000
03F03FC000
03F03FC000
03F83FC000
03FE3FC000
03FFFFC000
01FFFFC000
01FFFFC000
01FFFFC000
01FFBFC000
01F03FC000
00F03FC000
00F03FC000
00F03FC000
00703FC000
00703FC000
00303FC000
00303FC000
00203FC000
00003FC000
00003FC000
00003FC000
00003FC000
00003FC000
00003FC000
00003FC000
00003FC000
00003FC000
00003FC000
00003FC000
00003FE000
00003FE000
00003FF800
00003FFF80
00000FFFE0
000007FFF0
000001FF80
000000FE00
0000003000
ENDCHAR
STARTCHAR P
ENCODING 80
SWIDTH 510 0
DWIDTH 42 0
BBX 34 81 4 0
BITMAP
0000600000
0000700000
0000780000
00007C0000
00207C0000
00207C0000
00607C0000
00607C0000
00E07C0000
00E07C0000
01E07C0000
01E07C0000
01E07C0000
01E07C0000
01E07C0000
01E07C0000
03E07C0000
03E07C0000
03E07E0000
03E07E0000
03E07E0000
07E07E0000
07E07E0000
07E07E0000
07E07E0000
07E07E0000
0FE07E0000
0FE07E0000
0FE07E0000
0FE07E0000
0FE07E0000
1FE07E0000
1FE07E0000
1FE07E0000
1FE07E0000
1FE07E0000
3FE07E0000
3FE07E0000
3FE07E0000
3FE07E0000
3FE0FE0000
3FE0FE0000
7FE0FE0000
7FE0FF0000
7FE0FF0000
7FE0FF0000
7FE0FF0000
F3E0FF0000
E1E0FF0000
01E0FF0000
01E0FF0000
01E0FF0000
01E0FF0000
01E0FF0000
01E0FF0000
01E0FF0000
01E0FF0000
01E0FF0000
01E0FF0000
01E0FF0000
01E0FF0000
00E0FF0000
00E0FF0000
00E0FF0000
0000FF0000
0000FF0000
0000FF0000
0000FF8000
0000FF8000
0000FF8000
0000FF8000
0000FF8000
0000FF8000
0000FF8000
0000FF8000
0000FFFE00
00007FFF80
00001FFFC0
00000FFF00
000003FC00
000000E000
ENDCHAR
STARTCHAR Q
ENCODING 81
SWIDTH 510 0
DWIDTH 42 0
BBX 29 82 6 0
BITMAP
00000800
00003F00
0000FFE0
0001FFF8
0007FFF8
000FFFF0
001FFF00
001FF000
001FF000
001FF000
001FF000
001FF000
001FF000
001FF000
001FF000
001FF000
001FF000
001FF000
C01FF000
601FF000
781FF000
7C1FE000
7F1FE000
3F9FE000
3FDFE000
1FFFE000
1FFFE000
0FFFE000
07FFE000
03FFE000
01FFE000
00FFE000
007FE000
007FE000
003FE000
001FE000
000FE000
000FE000
000FE000
000FE000
000FE000
000FE000
000FE000
000FE000
000FE000
000FE000
000FC060
000FC0C0
000FC1C0
000FC3C0
000FCFC0
000FDF80
000FFF80
000FFF80
000FFF00
000FFF00
000FFF00
000FFF00
000FFE00
000FFE00
000FFE00
000FFC00
000FFC00
000FFC00
000FF800
000FF800
000FF800
000FF000
000FF000
000FF000
000FF000
000FE000
000FE000
000FE000
000FC000
000FC000
000FC000
000F8000
000F8000
000F8000
000E0000
000C0000
ENDCHAR
STARTCHAR R
ENCODING 82
SWIDTH 510 0
DWIDTH 42 0
BBX 26 82 8 0
BITMAP
00004000
0001F800
0007FE00
000FFFC0
003FFF80
007FFF00
00FFF800
00FF8000
00FF8000
00FF8000
00FF8000
00FF8000
00FF8000
00FF8000
00FF8000
00FF8000
00FF8000
00FF8000
00FF8000
00FF0000
00FF0000
00FF0000
00FF0000
00FF0000
00FF0000
00FFE000
00FFFC00
00FFFF00
00FFFFC0
00FFFF80
00FFFF80
00FFC000
00FF0000
007F0000
007F0000
007F0000
007F0000
007F0000
007F0000
007F0000
007F0000
007F0000
007E0000
007E0000
007F0000
007FC000
807FF800
C07FFF00
F07FFFC0
787FFFC0
7C7FFF80
7E7FFC00
7F7E0000
3FFE0000
3FFE0000
3FFE0000
1FFE0000
1FFE0000
1FFF8000
0FFFF000
0FFFFE00
0FFFFF80
0FFFFFC0
07FFFF80
07FFFF00
07FC0000
03FC0000
03FC0000
03FC0000
03FC0000
01FC0000
01FC0000
01FC0000
00FC0000
00FC0000
00FC0000
00FC0000
007C0000
007C0000
00780000
00700000
00400000
ENDCHAR
STARTCHAR S
ENCODING 83
SWIDTH 510 0
DWIDTH 42 0
BBX 29 81 7 0
BITMAP
0000C000
0003C000
0007C008
001FC018
003FC038
007FC0F8
007FC1F0
007FC7F0
007FCFF0
007FDFF0
007FFFE0
007FFFC0
007FFF80
007FFF00
007FFE00
007FFC00
007FFC00
00FFF800
03FFF000
1FFFE000
7FFFC000
FFFF8000
7FFF8000
1FFF8000
03FF8000
007F8000
007F8000
007F8000
007F8000
007F8000
007F8000
007F8000
007F8000
007F8000
007F8000
007F8000
007F8000
007F8000
007F0000
007F0000
007F0000
007F0000
007F0000
003F0000
003F0000
003F0000
003F0000
003F0000
003F0000
003F0000
003F0000
003F0000
003F0000
003F0000
003F0000
003F0000
003F0000
003F0000
003F0000
003F0000
003F0000
003E0000
003E0000
003E0000
003E0000
003E0000
003E0000
003E0000
003E0000
003E0000
003E0000
003E0000
003E0000
003E0000
003E0000
003E0000
003E0000
003E0000
003C0000
00380000
00300000
ENDCHAR
STARTCHAR T
ENCODING 84
SWIDTH 510 0
DWIDTH 42 0
BBX 30 81 6 1
BITMAP
00008000
00018000
00038000
00078000
00078000
00078000
00078000
00078000
000F8000
000F8000
000F8000
000F8000
000F8000
000F8000
000F8000
000F8000
000F8000
000F8000
000F8000
000F8000
000F8000
000F8000
000F8000
000F8000
000F8000
000F8000
000F8000
000F8000
000F8000
000F8000
000F8000
000F8000
000F8000
000F8000
000F8000
000F8000
000F8000
000F8000
000F8000
001F8000
001F8000
001F8000
003F8000
003F8000
003F8000
007F0000
007F0000
007F0000
00FE0000
00FE0000
00FE0000
01FE0000
01FC0000
01FC0000
03FC0000
03F80000
03F80000
07F80000
07F80000
07F00000
0FF00000
0FF00000
0FE00000
1FE00000
1FE00000
1FC00000
3FC00000
3FC00000
3FC00000
7F800008
7F800038
7F800078
FF800078
7FC000F8
3FFF00F8
1FFFFFF8
0FFFFFF8
07FFFFF8
03FFFFFC
01FFFFF0
00FFE000
ENDCHAR
STARTCHAR U
ENCODING 85
SWIDTH 510 0
DWIDTH 42 0
BBX 36 82 3 0
BITMAP
0000100000
00007C0000
0000FF8000
0003FFF000
000FFFF000
001FFFE000
007FFF0000
01FFE00000
07FFE00000
3FFFE00000
FFFFE00000
FFFFE00000
7FFFE00000
1FFFE00000
003FE00000
003FE00000
003FE00000
003FE00000
003FE00000
003FE00000
003FE00000
003FE00000
003FC00000
001FC00000
001FC00000
001FC00000
001FC00000
001FC00000
001FC00000
001FC00000
001FC00000
001FC00000
001FC00000
001FC00000
001FC00000
001FC00000
001FC00000
001FC00000
001FC00000
001FC00000
001FC00000
001FC00000
001FC00000
001FC00000
001FE00000
001FFC0000
001FFF8000
001FFFE000
001FFFFC00
001FFFF800
001FFFF000
001FFFE000
001F800000
001F800000
001F800000
001F800000
001F800000
001F800000
001F800000
001F800000
001F800000
001F800000
001F800000
001F800000
001F800000
001F800000
001F800000
001F800000
001F800000
001F800000
001F800020
001F8000E0
001F0001E0
001F0001E0
001FC001F0
001FFF01F0
001FFFFFF0
000FFFFFF0
0007FFFFF0
0003FFFFF0
0003FFFF00
0001FE0000
ENDCHAR
STARTCHAR V
ENCODING 86
SWIDTH 510 0
DWIDTH 42 0
BBX 34 82 4 0
BITMAP
0000020000
0000060000
00001E0000
00007E0000
0000FE0000
0003FE0000
0003FE0000
0003FE0000
0003FE0000
0003FE0000
0003FE0000
0003FE0000
0003FE0000
0003FE0000
0003FE0000
0003FE0000
0003FE0000
0003FFFE00
0003FFFF80
0003FFFF80
0003FFFF80
0003FFFC00
0003FFF000
0003FF8000
0003FE0000
0003FC0000
0003FC0000
0003FC0000
0003FC0000
0001FFFC00
0001FFFF00
0001FFFF80
0001FFFFC0
0001FFFF00
0001FFF800
0001FFC000
0001FE0000
0001FC0000
0001FC0000
0001FC0000
0001FC0000
0001FC0000
0001FC0000
0001FC0000
0001FC0000
0001F80000
0001F80000
0001F80000
0001F80000
0001F80000
0001F80000
0001F80000
0001F80000
0001F80000
0001F80000
0001F80000
0001F80000
0001FC0000
0001FF8000
0001FFE000
0003FFF800
0007FFFC00
000FFFFE00
001FFFF800
003FFFC000
007FFC0000
00FFF80000
01FFF80000
03FFF00000
07FFF00000
0FFFF00000
1FF9F00000
3FF1F00000
3FC1F00000
3F01F00000
7E01F00000
7801F00000
7001F00000
C001F00000
0001E00000
0001800000
0001000000
ENDCHAR
STARTCHAR W
ENCODING 87
SWIDTH 510 0
DWIDTH 42 0
BBX 30 82 6 0
BITMAP
00080000
000C0000
000E0000
000F0000
000F8000
000F8000
000F8000
000F8000
000F8000
000F8000
000F8000
000F8000
001F8000
001F8000
001F8000
001F8000
001F8000
001F8000
001F8000
001F8000
001F8000
001F8000
001F8000
001F8000
001FC000
001FC000
001FC000
001FC000
001FC000
001FC000
001FC000
001FC000
001FC000
001FC000
000FE000
000FE000
0007F000
0007F000
0003F800
0003F800
0003F800
0001FC00
0001FC00
0000FE00
0000FE00
0000FE00
00007F00
00007F00
00003F80
00003F80
00001FC0
00001FC0
00001FC0
00000FE0
00000FE0
000007F0
000007F0
000007F0
000003F8
000003F8
000003F8
000003F8
000003FC
000003FC
000003FC
000003FC
000003FC
000003FC
000007FC
000007FC
C00007FC
F00007FC
F00007FC
F80007FC
F8003FFC
F81FFFF8
FFFFFFE0
FFFFFFC0
FFFFFF80
FFFFFF00
0FFFFC00
0003F800
ENDCHAR
STARTCHAR X
ENCODING 88
SWIDTH 510 0
DWIDTH 42 0
BBX 34 82 4 0
BITMAP
0000004000
000001F800
000003FE00
00000FFFC0
00003FFFC0
00007FFF80
0000FFF800
0000FF8000
00007F8000
00007F8000
00007F8000
00007F8000
00007F8000
00007F8000
00007F8000
00007F8000
00007F8000
00007F8000
00007F8000
00007F8000
00007F8000
00007F8000
00007F8000
00007F8000
00007F8000
00007F8000
00007F8000
00003F8000
00003F8000
00003F8000
00003F8000
00003F8000
00003F8000
00003F8000
00003F8000
00003F8000
00003F8000
00003F8000
00003F8000
00003F8000
00003F8000
00003F8000
00003F8000
00003F8000
00003F8000
00003F8000
00003F8000
00003F8000
00003F8000
00003F8000
00003F8000
00003F8000
00001F8000
00001F8000
00001F8000
00001F8000
00001F8000
00001F8000
00001F8000
00001F8000
00001F8000
00001F8000
00001F8000
00001F8000
00001F8000
00001F8000
00001F8000
00001F8000
00001F8000
00001F8000
60001F8000
70001F8000
F8001F8000
F8001F0000
F800FF0000
F87FFF0000
FFFFFF0000
FFFFFE0000
FFFFFE0000
FFFFFC0000
01FFF80000
0000700000
ENDCHAR
STARTCHAR Y
ENCODING 89
SWIDTH 510 0
DWIDTH 42 0
BBX 17 82 12 0
BITMAP
004000
01F000
07FE00
0FFF80
3FFF80
7FFF00
FFF000
FF0000
FF0000
FF0000
FF0000
FF0000
FF0000
FF0000
FF0000
FF0000
FF0000
FF0000
FE0000
FE0000
FE0000
FE0000
FE0000
FE0000
FE0000
FE0000
FE0000
FE0000
FE0000
FE0000
FE0000
FE0000
FE0000
7E0000
7E0000
7E0000
7E0000
7E0000
7E0000
7E0000
7E0000
7E0000
7E0000
7E0000
7F0000
7FE000
7FFC00
7FFF00
7FFF80
7FFF00
7FFE00
7E0000
7C0000
7C0000
7C0000
7C0000
7C0000
7C0000
7C0000
7C0000
7C0000
7C0000
7C0000
7C0000
7C0000
7C0000
7C0000
7C0000
7C0000
7C0000
7C0000
7C0000
7C0000
7C0000
780000
780000
780000
780000
780000
780000
380000
080000
ENDCHAR
STARTCHAR Z
ENCODING 90
SWIDTH 510 0
DWIDTH 42 0
BBX 30 82 6 0
BITMAP
00C00000
07E00000
3FF80000
FFFE0000
7FFF0000
3FFFC000
01FFC000
003FC000
003FC000
003FC000
003FC000
003FC000
003FC000
003FC000
003FC000
003FC000
003FC000
003FC000
001FC000
001FC000
001FC000
001FC000
001FC000
001FC000
001FC000
001FC000
001F8000
001F8000
001F8000
001F8000
001F8000
001F8000
001F8000
001F8000
001F8000
001F8000
001F8000
001F8000
001F8000
001F8000
001F8000
001F8000
001F8000
001F8000
001F8000
001F8000
000F8000
000F8000
000F8000
000F8000
000F8000
000F8000
000F8000
000F8000
000F8000
000F8000
001F8000
00FF800C
07FF8018
1FFF8038
FFFF8078
7FFF80F8
7FFF83F0
0FFF87F0
000F8FF0
000F8FE0
000F8FE0
000F87E0
000F87E0
000F87C0
000F87C0
000F87C0
000F83C0
000F8380
000F8380
000F8380
000F8300
000F0300
000F0100
00070100
00060000
00040000
ENDCHAR
STARTCHAR underscore
ENCODING 95
SWIDTH 510 0
DWIDTH 42 0
BBX 30 13 6 1
BITMAP
00000008
0000003C
0000003C
0000007C
0000007C
001FFFFC
07FFFFFC
0FFFFFFC
1FFFFFFC
3FFFFFFC
3FFFFFFC
7FFFE000
F8000000
ENDCHAR
STARTCHAR a
ENCODING 97
SWIDTH 510 0
DWIDTH 42 0
BBX 25 81 8 0
BITMAP
00200000
00200000
00203000
00603800
00603C00
00E03C00
00E03E00
01E03E00
01E03E00
01E03E00
01E03E00
01E03E00
01E03E00
03E03E00
03E03E00
03E03E00
03E03E00
03E03E00
07F03E00
07F07E00
07F07E00
07F07E00
07F07E00
0FF07E00
0FF07E00
0FF07E00
0FF07E00
0FF07E00
1FF07E00
1FF07E00
1FF07F00
1FF07F00
1FF07F00
3FF07F00
3FE07F00
3FE07F00
3FE07F00
3FE07F00
3FE07F00
7FE07F00
7FE07F00
7FE07F00
79E07F00
71E07F00
C1E07F00
01E07F00
01E07F00
01E07F00
01E07F00
01E07F00
01E07F00
01E07F00
00E07F00
00E07F00
00E07F80
00E07F80
00E07F80
00E07F80
00E07F80
00007F80
00007F80
00007F80
00007F80
00007F80
00007F80
00007F80
00007F80
00007F80
00007F80
00007F80
00007F80
00007F80
00007F80
00007F80
00007F80
00007F80
00007F80
00001F80
00000780
00000380
00000080
ENDCHAR
STARTCHAR b
ENCODING 98
SWIDTH 510 0
DWIDTH 42 0
BBX 26 82 8 0
BITMAP
0000C000
0003F000
0007FE00
001FFF80
007FFF80
00FFFF00
00FFF000
00FF8000
00FF0000
00FF0000
00FF0000
00FF0000
00FF0000
00FF0000
00FF0000
00FF0000
00FF0000
00FF0000
00FF0000
00FF0000
00FF0000
00FF0000
00FF0000
00FF0000
00FF0000
00FFE000
00FFFC00
00FFFF00
00FFFFC0
00FFFF80
00FFFF80
00FFC000
00FE0000
00FE0000
00FE0000
00FE0000
00FE0000
00FE0000
00FE0000
00FE0000
00FE0000
00FE0000
00FE0000
00FE0000
00FE0000
00FE0000
00FE0000
C0FE0000
E0FE0000
70FE0000
78FE0000
7EFE0000
7FFE0000
3FFC0000
3FFC0000
3FFC0000
3FFC0000
1FFC0000
1FFC0000
1FFC0000
1FFC0000
0FFC0000
0FFC0000
0FFC0000
0FFC0000
07FC0000
07FC0000
07FC0000
07FC0000
03FC0000
03FC0000
03FC0000
03FC0000
01FC0000
01FC0000
01FC0000
01FC0000
00F80000
00F80000
00F80000
00E00000
00400000
ENDCHAR
STARTCHAR c
ENCODING 99
SWIDTH 510 0
DWIDTH 42 0
BBX 26 82 8 0
BITMAP
00400000
01F00000
07FE0000
0FFFC000
3FFF8000
FFFF0000
FFF80000
FF800000
FF800000
FF800000
FF800000
FF800000
FF800000
FF800000
FF800000
FF800000
FF800000
FF000000
FF000000
FF000000
FF000000
FF000000
FF000000
FF000000
FF000000
FF000000
FF000000
FF000000
FF000000
FF000000
FF000000
FF000000
FF000000
FF000000
FF000000
FF000000
FF000000
FF000000
7F000000
7F000000
7F000000
7E000000
7E000000
7E000000
7E000000
7E000000
7E000000
7E000000
7E000000
7E000000
7E000000
7E000000
7E000000
7E000000
7E000000
7E000000
7E000000
7E000000
7E000000
7E000000
7E000000
7E000000
7E000000
7E000000
7E000000
7E000000
7E000000
7C000000
7C000000
7C000000
7C000180
7C000380
7C000780
7C000780
7F800780
7FFF0F80
3FFFFFC0
3FFFFFC0
1FFFFFC0
0FFFFFC0
07FFC000
07800000
ENDCHAR
STARTCHAR d
ENCODING 100
SWIDTH 510 0
DWIDTH 42 0
BBX 30 82 6 -1
BITMAP
00000400
00001F80
20003FF0
3000FFFC
3803FFF8
3E07FFF0
3E07FF00
3E07F800
3E07F800
3E07F800
3E07F800
3E07F800
3E07F800
3E07F800
3E07F800
3E07F800
3E07F800
3E07F800
3E07F800
3E07F800
3E07F800
3E07F800
3E07F800
3E07F800
7E07F800
7E07F000
7E07F000
7E07F000
7E07F000
7E07F000
7E07F000
7E07F000
7E07F000
7E07F000
7E07F000
7E07F000
7E07F000
7F07F000
7F07F000
7F07F000
7F07F000
7F07F000
7F07F000
7F07F000
7F07F000
7F07F000
7F07F000
7F07F000
7F07F000
7F07E000
FF07E000
FF07E000
FF07E000
FF07E000
FF07E000
FF07E000
FF07E000
FF07E000
FF07E000
FF07E000
FF07E000
FF07E000
FF07E000
FF07E000
FF07E000
FF07E000
FF07E000
FF07E000
FF07E010
FF07E030
FF03E0F0
FF03E1F0
FF03C1F0
FFE3C1F0
FFFFE1F0
FFFFFFF0
FFFFFFF0
7FFFFFF0
3FFFFFF0
1FFFFE00
0FFF0000
07C00000
ENDCHAR
STARTCHAR e
ENCODING 101
SWIDTH 510 0
DWIDTH 42 0
BBX 28 82 7 0
BITMAP
00003000
00007E00
0001FF80
0007FFF0
000FFFE0
001FFFC0
007FFC00
01FFE000
07FFE000
3FFFE000
FFFFE000
FFFFE000
7FFFE000
0FFFE000
003FE000
003FC000
003FC000
003FC000
003FC000
003FC000
003FC000
003FC000
003FC000
003FC000
003FC000
003FC000
003FC000
003FC000
003FC000
003FC000
003FC000
003FC000
003FC000
003FC000
003FC000
003FC000
003FC000
003FC000
003F8000
003F8000
003F8000
003F8000
003F8000
003F8000
003F8000
003F8000
001F8000
001F8000
001F8000
001F8000
001F8000
001F8000
001F8000
001F8000
001F8000
001F8000
001F8000
001F8000
001F8000
001F8000
001F8000
001F8000
001F0000
001F0000
001F0000
001F0000
001F0000
001F0000
001F0000
001F0000
001F0000
001F0000
001F0000
001F0000
001F0000
001F0000
001F0000
001F0000
001F0000
001E0000
001C0000
00180000
ENDCHAR
STARTCHAR f
ENCODING 102
SWIDTH 510 0
DWIDTH 42 0
BBX 36 81 3 1
BITMAP
000FC00000
001FFF8000
003FFFFE00
007FFFFFF0
00FFFFFFF0
01FFFFFFF0
03FFFFFFF0
01FFFFC3F0
01FFE003F0
01FF0001F0
01FF0001F0
01FF0001F0
01FE000070
01FE000000
01FE000000
01FE000000
01FE000000
01FE000000
01FE000000
81FE000000
C1FE000000
F1FE000000
F9FE000000
7DFE000000
7FFE000000
7FFE000000
7FFE000000
3FFE000000
3FFE000000
3FFE000000
3FFE000000
1FFE000000
1FFE000000
1FFE000000
1FFE000000
0FFE000000
0FFE000000
0FFE000000
0FFE000000
07FE000000
07FE000000
07FE000000
07FE000000
03FE000000
03FC000000
03FC000000
03FC000000
01FC000000
01FC000000
01FC000000
01FC000000
00FC000000
00FC000000
00FC000000
00FC000000
00FC000000
00FC000000
00FC000000
00FC000000
00FC000000
00FC000000
00FC000000
00FC000000
00FC000000
00FC000000
00FC000000
00FC000000
00FC000000
00FC000000
00FC000000
00FC000000
00FC000000
00FC000000
007C000000
007C000000
007C000000
007C000000
007C000000
0078000000
0070000000
0060000000
ENDCHAR
STARTCHAR g
ENCODING 103
SWIDTH 510 0
DWIDTH 42 0
BBX 31 81 5 0
BITMAP
00010000
0001C000
0001C000
0001E000
0001E000
0001E000
0001E000
0001F000
0001F000
0001F000
0001F000
0001F000
0001F000
0001F000
0001F000
0001F000
0001F000
0001F000
0001F000
0001F000
0001F000
0001F000
0001F000
0001F000
0001F000
0001F000
0001F000
0001F000
0001F000
0001F000
0001F000
0001F000
0001F000
0001F000
0001F000
0001F000
0001F000
0001F000
0001F000
0001F800
0001F800
8001F800
6001FC00
7001FC00
7801FC00
3E00FE00
3F00FE00
3F80FE00
1FC07F00
1FC07F00
1FC07F00
1FC07F80
0FC03F80
0FC03F80
0FC03FC0
07801FC0
07801FC0
07801FE0
03800FE0
03800FE0
03800FF0
01800FF0
010007F0
010007F8
000007F8
000003F8
000003FC
000003FC
000003FC
180001FE
1C0001FE
1E0001FE
1E0001FE
1F001FFC
1F07FFF8
1FFFFFF0
1FFFFFE0
3FFFFFC0
3FFFFF80
00FFFF00
00003E00
ENDCHAR
STARTCHAR h
ENCODING 104
SWIDTH 510 0
DWIDTH 42 0
BBX 30 82 6 0
BITMAP
00400000
01F80000
07FF0000
0FFFC000
3FFFC000
7FFF8000
FFF80000
FF800000
FF800000
FF800000
FF800000
FF800000
FF800000
FF800000
FF800000
FF800000
FF800000
FF800000
FF800000
FF800000
FF800000
FF000000
FF000000
FF000000
FF180080
FF1C00C0
FF0E00E0
7F0F80E0
7F0FC0F0
7F0FE0F0
7F07F0F0
7F07F8F0
7F07F0F0
7F03F0F0
7F03F0F0
7F03F0F0
7F01F0F0
7F01F0F0
7F01F0F0
7F00F1F0
7F00E1F0
7F00E1F0
7F0061F0
7F0061F0
7F0061F0
7E0021F0
7E0001F0
7E0001F0
7E0001F0
7E0001F0
7E0001F0
7E0001F0
7E0001F8
7E0001F8
7E0001F8
7E0001F8
7E0001F8
7E0001F8
7E0001F8
7E0001F8
7E0001F8
7E0001F8
7E0001F8
7E0001F8
7E0001F8
7E0001F8
7E0001F8
7E0001F8
7E0001F8
7C0001F8
7C0001F8
7C0001F8
7C0001F8
7C0001F8
7C0001F8
7C0001F8
7C0000F8
7C00007C
7C00003C
7800001C
70000004
60000000
ENDCHAR
STARTCHAR i
ENCODING 105
SWIDTH 510 0
DWIDTH 42 0
BBX 29 81 6 0
BITMAP
00000E00
00001E00
00007C00
0000FC00
0003FC00
0003FC00
0003FC00
0003FC00
0003FC00
0003FC00
0003FC00
0003FC00
0003FC00
0003FC00
0003FC00
0003FC00
0003FC00
0003FC00
0003FC00
0003FC00
0003FC00
0003FC00
0003FC00
0003FC00
0003FC00
0003FC00
0003F800
0003F800
0003F800
0003F800
0003F800
0003F800
0003F800
0003F800
0003F800
0003F800
0003F800
0003F800
0003F800
0003F800
0003F800
0003F800
0003F800
0003F800
0003F800
0003F800
0003F800
0003F800
0003F800
0003F000
0003F000
0003F000
0003F000
0003F000
0003F000
0003F000
0003F800
0003FF00
0003FFE0
0007FFF8
000FFFF8
001FFFF8
001FFFC0
003FFF00
007FF800
00FFF000
01FFF000
03FFF000
07FFF000
07FFF000
0FFBF000
1FF3F000
3FE3E000
3F83E000
7F03E000
7E03E000
7803E000
7003E000
C003E000
80018000
00010000
ENDCHAR
STARTCHAR j
ENCODING 106
SWIDTH 510 0
DWIDTH 42 0
BBX 18 82 12 0
BITMAP
00E000
03FC00
07FF00
1FFFC0
3FFF80
FFFF00
FFE000
FF8000
FF8000
FF8000
FF8000
FF8000
FF8000
FF8000
FF8000
FF0000
FF0000
FF0000
FF0000
FF0000
FF0000
FF0000
FF0000
FF0000
FF0000
FF0000
FF0000
FF0000
FF0000
FF0000
FF0000
FF0000
FF0000
FF0000
FF0000
FF0000
FF0000
FF0000
FE0000
FE0000
FE0000
FE0000
FE0000
FE0000
7E0000
7E0000
7E0000
7E0000
7E0000
7E0000
7E0000
7E0000
7E0000
7E0000
7E0000
7E0000
7E0000
7E0000
7E0000
7E0000
7E0000
7E0000
7C0000
7C0000
7C0000
7C0000
7C0000
7C0000
7C0000
7C0000
7C0000
7C0000
7C0000
7C0000
7C0000
7C0000
7C0000
7C0000
7C0000
780000
700000
400000
ENDCHAR
STARTCHAR k
ENCODING 107
SWIDTH 510 0
DWIDTH 42 0
BBX 29 82 6 0
BITMAP
00000C00
00003F80
0000FFF0
0001FFF8
0007FFF8
001FFFE0
001FFC00
000FF000
000FF000
000FF000
000FF000
000FF000
000FF000
000FF000
000FF000
000FF000
000FF000
800FF000
600FF000
700FF000
7C0FF000
3E0FF000
3F0FF000
3FCFF000
1FEFF000
1FFFF000
0FFFF000
07FFF000
03FFF000
01FFF000
00FFF000
00FFE000
007FE000
003FE000
001FE000
000FE000
000FE000
000FE000
000FE000
000FE000
000FE000
000FE000
000FE000
000FE000
001FE000
00FFE000
07FFE060
3FFFE0E0
7FFFE1E0
7FFFE3C0
3FFFE7C0
0FFFFFC0
000FFF80
000FFF80
000FFF80
000FFF00
000FFF00
000FFF00
007FFF00
01FFFE00
0FFFFE00
7FFFFE00
7FFFFC00
7FFFFC00
1FFFFC00
000FF800
000FF800
000FF800
000FF800
000FF000
000FF000
000FF000
0007E000
0007E000
0007E000
0007C000
0007C000
0007C000
0007C000
00078000
00060000
00040000
ENDCHAR
STARTCHAR l
ENCODING 108
SWIDTH 510 0
DWIDTH 42 0
BBX 34 81 4 0
BITMAP
0000400000
0001C00000
0003E000C0
0003E00180
0003E00780
0003E01F80
0003E03F00
0003E0FF00
0003E3FF00
0003E7FE00
0007FFFC00
0007FFF800
0007FFF000
0007FFE000
0007FFC000
000FFF8000
007FFF0000
03FFFE0000
1FFFFC0000
1FFFF80000
0FFFF00000
03FFE00000
00FFE00000
001FE00000
0007E00000
0007E00000
0007E00000
0007E00000
0007E00000
0007E00000
0007E00000
0007E00000
000FE00000
000FE00000
000FE00000
000FE00000
000FE00000
000FE00000
000FE00000
000FE00000
000FE00000
000FE00000
000FE00000
000FE00000
001FE00000
00FFE00000
03FFE00000
1FFFE00000
FFFFE00000
7FFFE00000
7FFFE00000
1FFFE00000
000FE00000
000FE00000
000FE00000
000FE00000
001FE00000
007FE00000
01FFE00000
0FFFE00000
7FFFE00000
FFFFE00000
7FFFE00000
3FFFF00000
00FFF00000
001FF00000
001FF00000
001FF00000
001FF00000
001FF00000
001FF00000
001FF00000
001FF00000
001FF00000
001FF00000
001FF00000
001FC00000
001F800000
001E000000
001C000000
0010000000
ENDCHAR
STARTCHAR m
ENCODING 109
SWIDTH 510 0
DWIDTH 42 0
BBX 31 82 5 0
BITMAP
00000300
00000FE0
00003FFC
00007FFE
0001FFFC
0003FFF8
0003FF00
0003FC00
0003FC00
0003FC00
0003FC00
0003FC00
0003FC00
0003FC00
0003FC00
0003FC00
0003FC00
0003FC00
0003FC00
0003FC00
0003FC00
0003FC00
0003FC00
C003FC00
6003FC00
7003FC00
7C03FC00
3E03FC00
3F03F800
3F83F800
1FC3F800
1FC3F800
1FC3F800
0FC3F800
0FC3F800
0FC3F800
0FC3F800
0783F800
0783F800
0783F800
0383F800
0383F800
0383F800
0183F800
0103F800
0103F800
0003F800
0003F800
0003F800
0003F800
0003F800
0003F000
0003F000
0003F000
0003F000
0003F000
0003F000
0003F000
0003F000
0003F000
0003F000
0003F000
0003F000
0003F000
0003F000
0001F000
0001F000
0001F000
0001F000
0001F000
0001F000
0001F000
0001F000
0001F000
0001F000
0001FC00
0001FFF8
0000FFFE
00007FFE
00001FFC
00000FE0
00000300
ENDCHAR
STARTCHAR n
ENCODING 110
SWIDTH 510 0
DWIDTH 42 0
BBX 31 82 5 0
BITMAP
00000300
00000FE0
00003FFC
00007FFE
0001FFFE
0007FFF8
0007FF00
0007FC00
0003FC00
0003FC00
0003FC00
0003FC00
0003FC00
0003FC00
0003FC00
0003FC00
0003FC00
0003FC00
0003FC00
0003FC00
0003FC00
0003FC00
0003FC00
8003FC00
6003FC00
7003FC00
7803FC00
3E03FC00
3F03FC00
3F83F800
1FC3F800
1FC3F800
1FC3F800
0FC3F800
0FC3F800
0FC3F800
0FC3F800
0783F800
0783F800
0783F800
0383F800
0383F800
0383F800
0183F800
0103F800
0103F800
0003F800
0003F800
0003F800
0003F800
0003F800
0003F800
0003F000
0003F000
0003F000
0003F000
0003F000
0003F000
0003F000
0003F000
0003F000
0003F000
0003F000
0003F000
0003F000
0003F000
0003F000
0003F000
0003F000
0003F000
0003F000
0001F000
0001F000
0001F000
0001F000
0001F000
0001F000
0001F000
0001E000
0001E000
00018000
00010000
ENDCHAR
STARTCHAR o
ENCODING 111
SWIDTH 510 0
DWIDTH 42 0
BBX 36 81 3 0
BITMAP
0000080000
00700E0000
00F00F0000
00F00F0000
00F01F0000
00F01F0000
00F01F0000
00F01F0000
00F01F0000
01F01F0000
01F01F0000
01F01F0000
01F01F8000
01F01F8000
01F01F8000
81F01F8000
E1F01F8000
79F01F8000
7FF01F8000
7FF01F8000
7FF01F8000
7FF01F8000
3FF01F8000
3FF01F8000
3FF01F8000
3FF01F8000
3FF01F8000
1FF01F8000
1FF01F8000
1FF01F8000
1FF01F8000
1FF01F8000
0FF01F8000
0FF01F8000
0FF01F8000
0FF01F8000
0FF01F8000
07F01F8000
07F01F8000
07F01F8000
07F03F8000
07F03F8000
03F03FC000
03F03FC000
03F03FC000
03F83FC000
03FE3FC000
03FFFFC000
01FFFFC000
01FFFFC000
01FFFFC000
01FFBFC000
01F03FC000
00F03FC000
00F03FC000
00F03FC000
00703FC000
00703FC000
00303FC000
00303FC000
00203FC000
00003FC000
00003FC000
00003FC000
00003FC000
00003FC000
00003FC000
00003FC000
00003FC000
00003FC000
00003FC000
00003FC000
00003FE000
00003FE000
00003FF800
00003FFF80
00000FFFE0
000007FFF0
000001FF80
000000FE00
0000003000
ENDCHAR
STARTCHAR p
ENCODING 112
SWIDTH 510 0
DWIDTH 42 0
BBX 34 81 4 0
BITMAP
0000600000
0000700000
0000780000
00007C0000
00207C0000
00207C0000
00607C0000
00607C0000
00E07C0000
00E07C0000
01E07C0000
01E07C0000
01E07C0000
01E07C0000
01E07C0000
01E07C0000
03E07C0000
03E07C0000
03E07E0000
03E07E0000
03E07E0000
07E07E0000
07E07E0000
07E07E0000
07E07E0000
07E07E0000
0FE07E0000
0FE07E0000
0FE07E0000
0FE07E0000
0FE07E0000
1FE07E0000
1FE07E0000
1FE07E0000
1FE07E0000
1FE07E0000
3FE07E0000
3FE07E0000
3FE07E0000
3FE07E0000
3FE0FE0000
3FE0FE0000
7FE0FE0000
7FE0FF0000
7FE0FF0000
7FE0FF0000
7FE0FF0000
F3E0FF0000
E1E0FF0000
01E0FF0000
01E0FF0000
01E0FF0000
01E0FF0000
01E0FF0000
01E0FF0000
01E0FF0000
01E0FF0000
01E0FF0000
01E0FF0000
01E0FF0000
01E0FF0000
00E0FF0000
00E0FF0000
00E0FF0000
0000FF0000
0000FF0000
0000FF0000
0000FF8000
0000FF8000
0000FF8000
0000FF8000
0000FF8000
0000FF8000
0000FF8000
0000FF8000
0000FFFE00
00007FFF80
00001FFFC0
00000FFF00
000003FC00
000000E000
ENDCHAR
STARTCHAR q
ENCODING 113
SWIDTH 510 0
DWIDTH 42 0
BBX 29 82 6 0
BITMAP
00000800
00003F00
00007FE0
0001FFF8
0007FFF8
000FFFF0
001FFF00
001FF000
001FF000
001FF000
001FF000
001FF000
001FF000
001FF000
001FF000
001FF000
001FF000
801FF000
401FF000
701FF000
781FF000
7C1FF000
3F1FF000
3F9FF000
3FFFF000
1FFFE000
0FFFE000
0FFFE000
07FFE000
03FFE000
01FFE000
00FFE000
007FE000
003FE000
001FE000
001FE000
000FE000
000FE000
000FE000
000FE000
000FE000
000FE000
000FE000
000FE000
000FE000
000FE000
000FE020
000FE0E0
000FE1C0
000FE3C0
000FE7C0
000FFF80
000FFF80
000FFF80
000FFF80
000FFF00
000FFF00
000FFF00
000FFE00
000FFE00
000FFE00
000FFC00
000FFC00
000FFC00
000FFC00
000FF800
000FF800
000FF800
000FF000
000FF000
000FF000
000FE000
000FE000
000FE000
000FE000
000FC000
000FC000
000FC000
000F8000
000F8000
000E0000
000C0000
ENDCHAR
STARTCHAR r
ENCODING 114
SWIDTH 510 0
DWIDTH 42 0
BBX 26 82 8 0
BITMAP
00004000
0001F800
0007FE00
000FFFC0
003FFF80
007FFF00
00FFF800
00FF8000
00FF8000
00FF8000
00FF8000
00FF8000
00FF8000
00FF8000
00FF8000
00FF8000
00FF8000
00FF8000
00FF8000
00FF0000
00FF0000
00FF0000
00FF0000
00FF0000
00FF0000
00FFE000
00FFFC00
00FFFF00
00FFFFC0
00FFFF80
00FFFF80
00FFC000
00FF0000
007F0000
007F0000
007F0000
007F0000
007F0000
007F0000
007F0000
007F0000
007F0000
007E0000
007E0000
007F0000
007FC000
807FF800
C07FFF00
F07FFFC0
787FFFC0
7C7FFF80
7E7FFC00
7F7E0000
3FFE0000
3FFE0000
3FFE0000
1FFE0000
1FFE0000
1FFF8000
0FFFF000
0FFFFE00
0FFFFF80
0FFFFFC0
07FFFF80
07FFFF00
07FC0000
03FC0000
03FC0000
03FC0000
03FC0000
01FC0000
01FC0000
01FC0000
00FC0000
00FC0000
00FC0000
00FC0000
007C0000
007C0000
00780000
00700000
00400000
ENDCHAR
STARTCHAR s
ENCODING 115
SWIDTH 509 0
DWIDTH 42 0
BBX 29 81 7 0
BITMAP
00018000
00038000
000F8008
003F8030
007F8070
00FF81F0
00FF83F0
00FF87E0
00FF9FE0
00FFBFE0
00FFFFC0
00FFFF80
00FFFF00
00FFFE00
00FFFE00
00FFFC00
00FFF800
00FFF000
07FFE000
3FFFC000
FFFF8000
FFFF8000
FFFF8000
3FFF0000
07FF0000
00FF0000
00FF0000
00FF0000
00FF0000
00FF0000
00FF0000
00FF0000
00FF0000
00FF0000
007F0000
007F0000
007F0000
007F0000
007F0000
007F0000
007F0000
007F0000
007E0000
007E0000
007E0000
007E0000
007E0000
007E0000
007E0000
007E0000
007E0000
007E0000
007E0000
007E0000
007E0000
007E0000
007E0000
007E0000
007E0000
007E0000
007E0000
007E0000
007E0000
007E0000
007E0000
007C0000
007C0000
007C0000
007C0000
007C0000
007C0000
007C0000
007C0000
007C0000
007C0000
007C0000
007C0000
007C0000
007C0000
00700000
00600000
ENDCHAR
STARTCHAR t
ENCODING 116
SWIDTH 510 0
DWIDTH 42 0
BBX 30 81 6 1
BITMAP
00008000
00018000
00038000
00078000
00078000
00078000
00078000
00078000
000F8000
000F8000
000F8000
000F8000
000F8000
000F8000
000F8000
000F8000
000F8000
000F8000
000F8000
000F8000
000F8000
000F8000
000F8000
000F8000
000F8000
000F8000
000F8000
000F8000
000F8000
000F8000
000F8000
000F8000
000F8000
000F8000
000F8000
000F8000
000F8000
000F8000
000F8000
001F8000
001F8000
001F8000
003F8000
003F8000
003F8000
007F0000
007F0000
007F0000
00FE0000
00FE0000
00FE0000
01FE0000
01FC0000
01FC0000
03FC0000
03F80000
03F80000
07F80000
07F80000
07F00000
0FF00000
0FF00000
0FE00000
1FE00000
1FE00000
1FC00000
3FC00000
3FC00000
3FC00000
7F800008
7F800038
7F800078
FF800078
7FC000F8
3FFF00F8
1FFFFFF8
0FFFFFF8
07FFFFF8
03FFFFFC
01FFFFF0
00FFE000
ENDCHAR
STARTCHAR u
ENCODING 117
SWIDTH 510 0
DWIDTH 42 0
BBX 36 82 3 0
BITMAP
0000100000
00007C0000
0000FF8000
0003FFF000
000FFFF000
001FFFE000
007FFF0000
01FFE00000
07FFE00000
3FFFE00000
FFFFE00000
FFFFE00000
7FFFE00000
1FFFE00000
003FE00000
003FE00000
003FE00000
003FE00000
003FE00000
003FE00000
003FE00000
003FE00000
003FC00000
001FC00000
001FC00000
001FC00000
001FC00000
001FC00000
001FC00000
001FC00000
001FC00000
001FC00000
001FC00000
001FC00000
001FC00000
001FC00000
001FC00000
001FC00000
001FC00000
001FC00000
001FC00000
001FC00000
001FC00000
001FC00000
001FE00000
001FFC0000
001FFF8000
001FFFE000
001FFFFC00
001FFFF800
001FFFF000
001FFFE000
001F800000
001F800000
001F800000
001F800000
001F800000
001F800000
001F800000
001F800000
001F800000
001F800000
001F800000
001F800000
001F800000
001F800000
001F800000
001F800000
001F800000
001F800000
001F800020
001F8000E0
001F0001E0
001F0001E0
001FC001F0
001FFF01F0
001FFFFFF0
000FFFFFF0
0007FFFFF0
0003FFFFF0
0003FFFF00
0001FE0000
ENDCHAR
STARTCHAR v
ENCODING 118
SWIDTH 510 0
DWIDTH 42 0
BBX 34 82 4 0
BITMAP
0000020000
0000060000
00001E0000
00007E0000
0000FE0000
0003FE0000
0003FE0000
0003FE0000
0003FE0000
0003FE0000
0003FE0000
0003FE0000
0003FE0000
0003FE0000
0003FE0000
0003FE0000
0003FE0000
0003FFFE00
0003FFFF80
0003FFFF80
0003FFFF80
0003FFFC00
0003FFF000
0003FF8000
0003FE0000
0003FC0000
0003FC0000
0003FC0000
0003FC0000
0001FFFC00
0001FFFF00
0001FFFF80
0001FFFFC0
0001FFFF00
0001FFF800
0001FFC000
0001FE0000
0001FC0000
0001FC0000
0001FC0000
0001FC0000
0001FC0000
0001FC0000
0001FC0000
0001FC0000
0001F80000
0001F80000
0001F80000
0001F80000
0001F80000
0001F80000
0001F80000
0001F80000
0001F80000
0001F80000
0001F80000
0001F80000
0001FC0000
0001FF8000
0001FFE000
0003FFF800
0007FFFC00
000FFFFE00
001FFFF800
003FFFC000
007FFC0000
00FFF80000
01FFF80000
03FFF00000
07FFF00000
0FFFF00000
1FF9F00000
3FF1F00000
3FC1F00000
3F01F00000
7E01F00000
7801F00000
7001F00000
C001F00000
0001E00000
0001800000
0001000000
ENDCHAR
STARTCHAR w
ENCODING 119
SWIDTH 510 0
DWIDTH 42 0
BBX 30 82 6 0
BITMAP
00080000
000C0000
000E0000
000F0000
000F8000
000F8000
000F8000
000F8000
000F8000
000F8000
000F8000
000F8000
001F8000
001F8000
001F8000
001F8000
001F8000
001F8000
001F8000
001F8000
001F8000
001F8000
001F8000
001F8000
001FC000
001FC000
001FC000
001FC000
001FC000
001FC000
001FC000
001FC000
001FC000
001FC000
000FE000
000FE000
0007F000
0007F000
0003F800
0003F800
0003F800
0001FC00
0001FC00
0000FE00
0000FE00
0000FE00
00007F00
00007F00
00003F80
00003F80
00001FC0
00001FC0
00001FC0
00000FE0
00000FE0
000007F0
000007F0
000007F0
000003F8
000003F8
000003F8
000003F8
000003FC
000003FC
000003FC
000003FC
000003FC
000003FC
000007FC
000007FC
C00007FC
F00007FC
F00007FC
F80007FC
F8003FFC
F81FFFF8
FFFFFFE0
FFFFFFC0
FFFFFF80
FFFFFF00
0FFFFC00
0003F800
ENDCHAR
STARTCHAR x
ENCODING 120
SWIDTH 510 0
DWIDTH 42 0
BBX 34 82 4 0
BITMAP
0000004000
000001F800
000003FE00
00000FFFC0
00003FFFC0
00007FFF80
0000FFF800
0000FF8000
00007F8000
00007F8000
00007F8000
00007F8000
00007F8000
00007F8000
00007F8000
00007F8000
00007F8000
00007F8000
00007F8000
00007F8000
00007F8000
00007F8000
00007F8000
00007F8000
00007F8000
00007F8000
00007F8000
00003F8000
00003F8000
00003F8000
00003F8000
00003F8000
00003F8000
00003F8000
00003F8000
00003F8000
00003F8000
00003F8000
00003F8000
00003F8000
00003F8000
00003F8000
00003F8000
00003F8000
00003F8000
00003F8000
00003F8000
00003F8000
00003F8000
00003F8000
00003F8000
00003F8000
00001F8000
00001F8000
00001F8000
00001F8000
00001F8000
00001F8000
00001F8000
00001F8000
00001F8000
00001F8000
00001F8000
00001F8000
00001F8000
00001F8000
00001F8000
00001F8000
00001F8000
00001F8000
60001F8000
70001F8000
F8001F8000
F8001F0000
F800FF0000
F87FFF0000
FFFFFF0000
FFFFFE0000
FFFFFE0000
FFFFFC0000
01FFF80000
0000700000
ENDCHAR
STARTCHAR y
ENCODING 121
SWIDTH 510 0
DWIDTH 42 0
BBX 17 82 12 0
BITMAP
004000
01F000
07FE00
0FFF80
3FFF80
7FFF00
FFF000
FF0000
FF0000
FF0000
FF0000
FF0000
FF0000
FF0000
FF0000
FF0000
FF0000
FF0000
FE0000
FE0000
FE0000
FE0000
FE0000
FE0000
FE0000
FE0000
FE0000
FE0000
FE0000
FE0000
FE0000
FE0000
FE0000
7E0000
7E0000
7E0000
7E0000
7E0000
7E0000
7E0000
7E0000
7E0000
7E0000
7E0000
7F0000
7FE000
7FFC00
7FFF00
7FFF80
7FFF00
7FFE00
7E0000
7C0000
7C0000
7C0000
7C0000
7C0000
7C0000
7C0000
7C0000
7C0000
7C0000
7C0000
7C0000
7C0000
7C0000
7C0000
7C0000
7C0000
7C0000
7C0000
7C0000
7C0000
7C0000
780000
780000
780000
780000
780000
780000
380000
080000
ENDCHAR
STARTCHAR z
ENCODING 122
SWIDTH 510 0
DWIDTH 42 0
BBX 30 82 6 0
BITMAP
00C00000
07E00000
3FF80000
FFFE0000
7FFF0000
3FFFC000
01FFC000
003FC000
003FC000
003FC000
003FC000
003FC000
003FC000
003FC000
003FC000
003FC000
003FC000
003FC000
001FC000
001FC000
001FC000
001FC000
001FC000
001FC000
001FC000
001FC000
001F8000
001F8000
001F8000
001F8000
001F8000
001F8000
001F8000
001F8000
001F8000
001F8000
001F8000
001F8000
001F8000
001F8000
001F8000
001F8000
001F8000
001F8000
001F8000
001F8000
000F8000
000F8000
000F8000
000F8000
000F8000
000F8000
000F8000
000F8000
000F8000
000F8000
001F8000
00FF800C
07FF8018
1FFF8038
FFFF8078
7FFF80F8
7FFF83F0
0FFF87F0
000F8FF0
000F8FE0
000F8FE0
000F87E0
000F87E0
000F87C0
000F87C0
000F87C0
000F83C0
000F8380
000F8380
000F8380
000F8300
000F0300
000F0100
00070100
00060000
00040000
ENDCHAR
ENDFONT
